<svg width="108" height="28" viewBox="0 0 108 28" fill="none" xmlns="http://www.w3.org/2000/svg"><title>Order41 Logo</title><path fill-rule="evenodd" clip-rule="evenodd" d="M41.596 27.314h1.342a8.275 8.275 0 008.275-8.28L51.2.593h-4.11l.027 2.225.085 6.837c-1.87-1.682-3.215-1.85-6.653-1.85-4.709 0-8.558 4.036-8.558 9.717 0 5.68 3.718 9.791 9.605 9.791zm-32.029-.037c5.42 0 9.568-3.999 9.568-9.754 0-5.756-4.149-9.717-9.568-9.717S0 11.767 0 17.523c0 5.755 4.148 9.754 9.567 9.754zm0-3.7c-3.25 0-5.456-2.354-5.456-6.054s2.205-6.017 5.456-6.017c3.252 0 5.457 2.317 5.457 6.017s-2.205 6.054-5.457 6.054zm15.547-7.4v10.577h-4.11V15.35c0-3.89 3.131-7.06 7.022-7.087.867-.006 1.645-.01 2.208-.01h1.944v3.85h-2.99c-2.504 0-4.074 1.383-4.074 4.073zm10.988 1.346c0 3.887 2.354 6.091 5.53 6.091 3.252 0 5.457-2.317 5.457-6.091 0-3.775-2.205-6.054-5.456-6.054-3.177 0-5.531 2.167-5.531 6.054zm26.534 9.754c4.672 0 6.914-2.541 8.26-4.634l-3.401-1.944c-.823 1.607-2.28 3.028-4.933 3.028-2.99 0-5.046-1.981-5.233-4.859h13.94v-1.794c0-5.456-3.587-9.305-8.969-9.305s-9.231 4.11-9.231 9.604c0 5.644 3.961 9.904 9.567 9.904zM57.33 15.804h9.717c-.187-2.766-1.943-4.485-4.784-4.485-2.915 0-4.596 1.72-4.933 4.485zm20.518 10.95V16.177c0-2.69 1.57-4.073 4.074-4.073h2.99v-3.85h-1.944c-.564 0-1.341.004-2.208.01-3.891.026-7.023 3.197-7.023 7.088v11.402h4.11zm30.036.187l.063-18.687H101.24v3.838h3.036l-.015 14.849h3.622zM97.269 8.254h-6.674l-4.171 13.353v2.535h7.142v2.799h3.786v-2.8h3.11v-3.535h-3.11l-.084-12.352zM90.18 20.606l3.331-10.008.055 10.008H90.18z" fill="currentColor"></path></svg>
